<svg id="svg" version="1.1" xmlns="http://www.w3.org/2000/svg" xmlns:xlink="http://www.w3.org/1999/xlink" width="400" height="225" viewBox="0, 0, 400,225"><g id="svgg"><path id="path0" d="M22.969 43.272 L 22.500 43.731 22.500 111.947 C 22.500 178.797,22.508 180.172,22.898 180.654 L 23.296 181.146 37.528 181.202 C 45.356 181.233,51.903 181.204,52.078 181.137 C 52.253 181.070,52.419 181.021,52.448 181.028 C 52.598 181.067,53.255 180.289,53.184 180.156 C 53.138 180.070,53.200 180.000,53.321 180.000 C 53.475 180.000,53.542 174.161,53.542 160.755 C 53.542 143.902,53.581 141.477,53.854 141.250 C 54.026 141.107,54.167 140.898,54.167 140.786 C 54.167 140.673,54.406 140.393,54.698 140.162 C 54.991 139.932,55.182 139.696,55.122 139.636 C 55.063 139.577,55.245 139.346,55.528 139.124 C 55.810 138.902,56.042 138.623,56.042 138.504 C 56.042 138.386,56.281 138.101,56.573 137.871 C 56.866 137.641,57.059 137.406,57.002 137.349 C 56.945 137.292,57.178 137.010,57.520 136.722 C 57.863 136.434,58.095 136.150,58.037 136.092 C 57.978 136.034,58.162 135.804,58.445 135.582 C 58.727 135.360,58.958 135.081,58.958 134.963 C 58.958 134.844,59.198 134.559,59.490 134.329 C 59.783 134.099,59.973 133.862,59.914 133.803 C 59.854 133.743,60.037 133.513,60.320 133.291 C 60.602 133.068,60.833 132.790,60.833 132.671 C 60.833 132.553,61.073 132.268,61.365 132.037 C 61.658 131.807,61.848 131.571,61.789 131.511 C 61.729 131.452,61.912 131.221,62.195 130.999 C 62.477 130.777,62.708 130.498,62.708 130.379 C 62.708 130.261,62.948 129.976,63.240 129.746 C 63.533 129.516,63.723 129.279,63.664 129.219 C 63.604 129.160,63.787 128.929,64.070 128.707 C 64.352 128.485,64.583 128.206,64.583 128.088 C 64.583 127.969,64.823 127.684,65.115 127.454 C 65.408 127.224,65.598 126.987,65.539 126.928 C 65.370 126.759,66.312 126.104,66.719 126.108 C 66.936 126.110,67.083 126.270,67.083 126.505 C 67.083 126.722,67.177 126.842,67.292 126.771 C 67.406 126.700,67.500 126.841,67.500 127.083 C 67.500 127.326,67.594 127.467,67.708 127.396 C 67.823 127.325,67.917 127.466,67.917 127.708 C 67.917 127.951,68.010 128.092,68.125 128.021 C 68.240 127.950,68.333 128.091,68.333 128.333 C 68.333 128.576,68.427 128.717,68.542 128.646 C 68.656 128.575,68.750 128.716,68.750 128.958 C 68.750 129.201,68.844 129.342,68.958 129.271 C 69.073 129.200,69.167 129.341,69.167 129.583 C 69.167 129.826,69.260 129.967,69.375 129.896 C 69.490 129.825,69.583 129.966,69.583 130.208 C 69.583 130.451,69.677 130.592,69.792 130.521 C 69.906 130.450,70.000 130.591,70.000 130.833 C 70.000 131.076,70.094 131.217,70.208 131.146 C 70.323 131.075,70.417 131.216,70.417 131.458 C 70.417 131.701,70.510 131.842,70.625 131.771 C 70.740 131.700,70.833 131.841,70.833 132.083 C 70.833 132.326,70.927 132.467,71.042 132.396 C 71.156 132.325,71.250 132.466,71.250 132.708 C 71.250 132.951,71.344 133.092,71.458 133.021 C 71.573 132.950,71.667 133.091,71.667 133.333 C 71.667 133.576,71.760 133.717,71.875 133.646 C 71.990 133.575,72.083 133.710,72.083 133.946 C 72.083 134.182,72.177 134.375,72.292 134.375 C 72.406 134.375,72.500 134.516,72.500 134.688 C 72.500 134.859,72.594 135.000,72.708 135.000 C 72.823 135.000,72.917 135.141,72.917 135.313 C 72.917 135.484,73.010 135.625,73.125 135.625 C 73.240 135.625,73.333 135.766,73.333 135.938 C 73.333 136.109,73.427 136.250,73.542 136.250 C 73.656 136.250,73.750 136.391,73.750 136.563 C 73.750 136.734,73.844 136.875,73.958 136.875 C 74.073 136.875,74.167 137.016,74.167 137.188 C 74.167 137.359,74.260 137.500,74.375 137.500 C 74.490 137.500,74.583 137.641,74.583 137.813 C 74.583 137.984,74.677 138.125,74.792 138.125 C 74.906 138.125,75.000 138.266,75.000 138.438 C 75.000 138.609,75.094 138.750,75.208 138.750 C 75.323 138.750,75.417 138.891,75.417 139.063 C 75.417 139.234,75.510 139.375,75.625 139.375 C 75.740 139.375,75.833 139.516,75.833 139.688 C 75.833 139.859,75.927 140.000,76.042 140.000 C 76.156 140.000,76.250 140.141,76.250 140.313 C 76.250 140.484,76.344 140.625,76.458 140.625 C 76.573 140.625,76.667 140.766,76.667 140.938 C 76.667 141.109,76.760 141.250,76.875 141.250 C 76.990 141.250,77.083 141.391,77.083 141.563 C 77.083 141.734,77.177 141.875,77.292 141.875 C 77.406 141.875,77.500 142.016,77.500 142.188 C 77.500 142.359,77.594 142.500,77.708 142.500 C 77.823 142.500,77.917 142.641,77.917 142.813 C 77.917 142.984,78.010 143.125,78.125 143.125 C 78.240 143.125,78.333 143.266,78.333 143.438 C 78.333 143.609,78.427 143.750,78.542 143.750 C 78.656 143.750,78.750 143.891,78.750 144.063 C 78.750 144.234,78.844 144.375,78.958 144.375 C 79.073 144.375,79.167 144.516,79.167 144.688 C 79.167 144.859,79.260 145.000,79.375 145.000 C 79.490 145.000,79.583 145.141,79.583 145.313 C 79.583 145.484,79.677 145.625,79.792 145.625 C 79.906 145.625,80.000 145.766,80.000 145.938 C 80.000 146.109,80.094 146.250,80.208 146.250 C 80.323 146.250,80.417 146.391,80.417 146.563 C 80.417 146.734,80.510 146.875,80.625 146.875 C 80.740 146.875,80.833 147.016,80.833 147.188 C 80.833 147.359,80.927 147.500,81.042 147.500 C 81.156 147.500,81.250 147.641,81.250 147.813 C 81.250 147.984,81.344 148.125,81.458 148.125 C 81.573 148.125,81.667 148.266,81.667 148.438 C 81.667 148.609,81.760 148.750,81.875 148.750 C 81.990 148.750,82.083 148.891,82.083 149.063 C 82.083 149.234,82.177 149.375,82.292 149.375 C 82.406 149.375,82.500 149.516,82.500 149.688 C 82.500 149.859,82.594 150.000,82.708 150.000 C 82.823 150.000,82.917 150.141,82.917 150.313 C 82.917 150.484,83.010 150.625,83.125 150.625 C 83.240 150.625,83.333 150.766,83.333 150.938 C 83.333 151.109,83.427 151.250,83.542 151.250 C 83.656 151.250,83.750 151.391,83.750 151.563 C 83.750 151.734,83.844 151.875,83.958 151.875 C 84.073 151.875,84.167 152.016,84.167 152.188 C 84.167 152.359,84.260 152.500,84.375 152.500 C 84.490 152.500,84.583 152.641,84.583 152.813 C 84.583 152.984,84.677 153.125,84.792 153.125 C 84.906 153.125,85.000 153.266,85.000 153.438 C 85.000 153.609,85.094 153.750,85.208 153.750 C 85.323 153.750,85.417 153.891,85.417 154.063 C 85.417 154.234,85.510 154.375,85.625 154.375 C 85.740 154.375,85.833 154.516,85.833 154.688 C 85.833 154.859,85.927 155.000,86.042 155.000 C 86.156 155.000,86.250 155.141,86.250 155.313 C 86.250 155.484,86.349 155.625,86.471 155.625 C 86.592 155.625,86.633 155.719,86.562 155.835 C 86.490 155.950,86.578 156.101,86.756 156.169 C 86.935 156.238,87.029 156.378,86.965 156.482 C 86.901 156.585,86.995 156.726,87.173 156.794 C 87.352 156.863,87.445 157.003,87.381 157.107 C 87.318 157.210,87.411 157.351,87.590 157.419 C 87.768 157.488,87.862 157.628,87.798 157.732 C 87.734 157.835,87.828 157.976,88.006 158.044 C 88.185 158.113,88.279 158.253,88.215 158.357 C 88.151 158.460,88.245 158.601,88.423 158.669 C 88.602 158.738,88.695 158.878,88.631 158.982 C 88.568 159.085,88.661 159.226,88.840 159.294 C 89.018 159.363,89.112 159.503,89.048 159.607 C 88.984 159.710,89.078 159.851,89.256 159.919 C 89.435 159.988,89.529 160.128,89.465 160.232 C 89.401 160.335,89.495 160.476,89.673 160.544 C 89.852 160.613,89.945 160.753,89.881 160.857 C 89.818 160.960,89.911 161.101,90.090 161.169 C 90.268 161.238,90.362 161.378,90.298 161.482 C 90.234 161.585,90.328 161.726,90.506 161.794 C 90.685 161.863,90.779 162.003,90.715 162.107 C 90.651 162.210,90.745 162.351,90.923 162.419 C 91.102 162.488,91.195 162.628,91.131 162.732 C 91.068 162.835,91.161 162.976,91.340 163.044 C 91.518 163.113,91.612 163.253,91.548 163.357 C 91.484 163.460,91.578 163.601,91.756 163.669 C 91.935 163.738,92.029 163.878,91.965 163.982 C 91.901 164.085,91.995 164.226,92.173 164.294 C 92.352 164.363,92.445 164.503,92.381 164.607 C 92.318 164.710,92.411 164.851,92.590 164.919 C 92.768 164.988,92.862 165.128,92.798 165.232 C 92.734 165.335,92.828 165.476,93.006 165.544 C 93.185 165.613,93.279 165.753,93.215 165.857 C 93.151 165.960,93.245 166.101,93.423 166.169 C 93.602 166.238,93.695 166.378,93.631 166.482 C 93.568 166.585,93.661 166.726,93.840 166.794 C 94.018 166.863,94.112 167.003,94.048 167.107 C 93.984 167.210,94.078 167.351,94.256 167.419 C 94.435 167.488,94.529 167.628,94.465 167.732 C 94.401 167.835,94.495 167.976,94.673 168.044 C 94.852 168.113,94.945 168.253,94.881 168.357 C 94.818 168.460,94.911 168.601,95.090 168.669 C 95.268 168.738,95.362 168.878,95.298 168.982 C 95.234 169.085,95.328 169.226,95.506 169.294 C 95.685 169.363,95.779 169.503,95.715 169.607 C 95.651 169.710,95.745 169.851,95.923 169.919 C 96.102 169.988,96.195 170.128,96.131 170.232 C 96.068 170.335,96.161 170.476,96.340 170.544 C 96.518 170.613,96.612 170.753,96.548 170.857 C 96.484 170.960,96.578 171.101,96.756 171.169 C 96.935 171.238,97.029 171.378,96.965 171.482 C 96.901 171.585,96.995 171.726,97.173 171.794 C 97.352 171.863,97.445 172.003,97.381 172.107 C 97.318 172.210,97.411 172.351,97.590 172.419 C 97.768 172.488,97.862 172.628,97.798 172.732 C 97.734 172.835,97.828 172.976,98.006 173.044 C 98.185 173.113,98.279 173.253,98.215 173.357 C 98.151 173.460,98.245 173.601,98.423 173.669 C 98.602 173.738,98.695 173.878,98.631 173.982 C 98.568 174.085,98.661 174.226,98.840 174.294 C 99.018 174.363,99.112 174.503,99.048 174.607 C 98.984 174.710,99.078 174.851,99.256 174.919 C 99.435 174.988,99.529 175.128,99.465 175.232 C 99.401 175.335,99.495 175.476,99.673 175.544 C 99.852 175.613,99.945 175.753,99.881 175.857 C 99.818 175.960,99.911 176.101,100.090 176.169 C 100.268 176.238,100.362 176.378,100.298 176.482 C 100.234 176.585,100.328 176.726,100.506 176.794 C 100.685 176.863,100.779 177.003,100.715 177.107 C 100.651 177.210,100.745 177.351,100.923 177.419 C 101.102 177.488,101.195 177.628,101.131 177.732 C 101.068 177.835,101.161 177.976,101.340 178.044 C 101.518 178.113,101.612 178.253,101.548 178.357 C 101.484 178.460,101.578 178.601,101.756 178.669 C 101.935 178.738,102.029 178.878,101.965 178.982 C 101.901 179.085,101.995 179.226,102.173 179.294 C 102.352 179.363,102.449 179.497,102.390 179.592 C 102.331 179.688,102.449 179.863,102.652 179.981 C 102.855 180.099,102.939 180.199,102.839 180.202 C 102.739 180.205,102.773 180.348,102.915 180.519 C 103.056 180.689,103.255 180.777,103.357 180.715 C 103.459 180.652,103.542 180.705,103.542 180.833 C 103.542 180.961,103.629 181.012,103.736 180.946 C 103.842 180.880,103.988 180.922,104.060 181.038 C 104.270 181.377,137.870 181.320,138.542 180.980 C 139.119 180.688,139.282 179.520,138.812 179.050 C 138.674 178.912,138.617 178.744,138.686 178.676 C 138.754 178.607,138.656 178.493,138.469 178.421 C 138.281 178.349,138.180 178.205,138.244 178.102 C 138.307 177.998,138.214 177.858,138.035 177.789 C 137.857 177.721,137.763 177.580,137.827 177.477 C 137.891 177.373,137.797 177.233,137.619 177.164 C 137.440 177.096,137.346 176.955,137.410 176.852 C 137.474 176.748,137.380 176.608,137.202 176.539 C 137.023 176.471,136.930 176.330,136.994 176.227 C 137.057 176.123,136.963 175.982,136.784 175.914 C 136.605 175.845,136.458 175.658,136.458 175.499 C 136.458 175.339,136.365 175.208,136.250 175.208 C 136.135 175.208,136.042 175.062,136.042 174.884 C 136.042 174.705,135.948 174.617,135.833 174.688 C 135.719 174.758,135.625 174.633,135.625 174.410 C 135.625 174.186,135.478 173.947,135.299 173.878 C 135.120 173.809,135.032 173.658,135.104 173.542 C 135.176 173.425,135.089 173.274,134.910 173.206 C 134.732 173.137,134.638 172.997,134.702 172.893 C 134.766 172.790,134.672 172.649,134.494 172.581 C 134.315 172.512,134.221 172.372,134.285 172.268 C 134.349 172.165,134.255 172.024,134.077 171.956 C 133.898 171.887,133.805 171.747,133.869 171.643 C 133.932 171.540,133.839 171.399,133.660 171.331 C 133.482 171.262,133.388 171.122,133.452 171.018 C 133.516 170.915,133.422 170.774,133.242 170.705 C 133.063 170.637,132.917 170.450,132.917 170.290 C 132.917 170.131,132.823 170.000,132.708 170.000 C 132.594 170.000,132.500 169.854,132.500 169.675 C 132.500 169.497,132.406 169.408,132.292 169.479 C 132.177 169.550,132.083 169.425,132.083 169.201 C 132.083 168.978,131.937 168.738,131.758 168.670 C 131.578 168.601,131.491 168.450,131.563 168.333 C 131.634 168.217,131.547 168.066,131.369 167.998 C 131.190 167.929,131.096 167.788,131.160 167.685 C 131.224 167.582,131.130 167.441,130.952 167.373 C 130.773 167.304,130.680 167.163,130.744 167.060 C 130.807 166.957,130.714 166.816,130.535 166.748 C 130.357 166.679,130.263 166.538,130.327 166.435 C 130.391 166.332,130.297 166.191,130.119 166.123 C 129.940 166.054,129.846 165.913,129.910 165.810 C 129.974 165.707,129.880 165.566,129.701 165.497 C 129.522 165.428,129.375 165.241,129.375 165.082 C 129.375 164.922,129.281 164.792,129.167 164.792 C 129.052 164.792,128.958 164.646,128.958 164.467 C 128.958 164.288,128.865 164.200,128.750 164.271 C 128.635 164.342,128.542 164.217,128.542 163.993 C 128.542 163.769,128.395 163.530,128.216 163.461 C 128.037 163.393,127.949 163.241,128.021 163.125 C 128.093 163.009,128.005 162.858,127.827 162.789 C 127.648 162.721,127.555 162.580,127.619 162.477 C 127.682 162.373,127.589 162.233,127.410 162.164 C 127.232 162.096,127.138 161.955,127.202 161.852 C 127.266 161.748,127.172 161.608,126.994 161.539 C 126.815 161.471,126.721 161.330,126.785 161.227 C 126.849 161.123,126.755 160.983,126.577 160.914 C 126.398 160.846,126.305 160.705,126.369 160.602 C 126.432 160.498,126.338 160.357,126.159 160.289 C 125.980 160.220,125.833 160.033,125.833 159.874 C 125.833 159.714,125.740 159.583,125.625 159.583 C 125.510 159.583,125.417 159.437,125.417 159.259 C 125.417 159.080,125.323 158.992,125.208 159.063 C 125.094 159.133,125.000 159.008,125.000 158.785 C 125.000 158.561,124.853 158.322,124.674 158.253 C 124.495 158.184,124.407 158.033,124.479 157.917 C 124.551 157.800,124.464 157.649,124.285 157.581 C 124.107 157.512,124.013 157.372,124.077 157.268 C 124.141 157.165,124.047 157.024,123.869 156.956 C 123.690 156.887,123.596 156.747,123.660 156.643 C 123.724 156.540,123.630 156.399,123.452 156.331 C 123.273 156.262,123.180 156.122,123.244 156.018 C 123.307 155.915,123.214 155.774,123.035 155.706 C 122.857 155.637,122.763 155.497,122.827 155.393 C 122.891 155.290,122.797 155.149,122.617 155.080 C 122.438 155.012,122.292 154.825,122.292 154.665 C 122.292 154.506,122.198 154.375,122.083 154.375 C 121.969 154.375,121.875 154.229,121.875 154.050 C 121.875 153.872,121.781 153.783,121.667 153.854 C 121.552 153.925,121.458 153.800,121.458 153.576 C 121.458 153.353,121.312 153.113,121.133 153.045 C 120.953 152.976,120.866 152.825,120.938 152.708 C 121.009 152.592,120.922 152.441,120.744 152.373 C 120.565 152.304,120.471 152.163,120.535 152.060 C 120.599 151.957,120.505 151.816,120.327 151.748 C 120.148 151.679,120.055 151.538,120.119 151.435 C 120.182 151.332,120.089 151.191,119.910 151.123 C 119.732 151.054,119.638 150.913,119.702 150.810 C 119.766 150.707,119.672 150.566,119.494 150.498 C 119.315 150.429,119.221 150.288,119.285 150.185 C 119.349 150.082,119.255 149.941,119.076 149.872 C 118.897 149.803,118.750 149.616,118.750 149.457 C 118.750 149.297,118.656 149.167,118.542 149.167 C 118.427 149.167,118.333 149.021,118.333 148.842 C 118.333 148.663,118.240 148.575,118.125 148.646 C 118.010 148.717,117.917 148.592,117.917 148.368 C 117.917 148.144,117.770 147.905,117.591 147.836 C 117.412 147.768,117.324 147.616,117.396 147.500 C 117.468 147.384,117.380 147.233,117.202 147.164 C 117.023 147.096,116.930 146.955,116.994 146.852 C 117.057 146.748,116.964 146.608,116.785 146.539 C 116.607 146.471,116.513 146.330,116.577 146.227 C 116.641 146.123,116.547 145.983,116.369 145.914 C 116.190 145.846,116.096 145.705,116.160 145.602 C 116.224 145.498,116.130 145.358,115.952 145.289 C 115.773 145.221,115.680 145.080,115.744 144.977 C 115.807 144.873,115.713 144.732,115.534 144.664 C 115.355 144.595,115.208 144.408,115.208 144.249 C 115.208 144.089,115.115 143.958,115.000 143.958 C 114.885 143.958,114.792 143.812,114.792 143.634 C 114.792 143.455,114.698 143.367,114.583 143.438 C 114.469 143.508,114.375 143.383,114.375 143.160 C 114.375 142.936,114.228 142.697,114.049 142.628 C 113.870 142.559,113.782 142.408,113.854 142.292 C 113.926 142.175,113.839 142.024,113.660 141.956 C 113.482 141.887,113.388 141.747,113.452 141.643 C 113.516 141.540,113.422 141.399,113.244 141.331 C 113.065 141.262,112.971 141.122,113.035 141.018 C 113.099 140.915,113.005 140.774,112.827 140.706 C 112.648 140.637,112.555 140.497,112.619 140.393 C 112.682 140.290,112.589 140.149,112.410 140.081 C 112.232 140.012,112.138 139.872,112.202 139.768 C 112.266 139.665,112.172 139.524,111.992 139.455 C 111.813 139.387,111.667 139.200,111.667 139.040 C 111.667 138.881,111.573 138.750,111.458 138.750 C 111.344 138.750,111.250 138.604,111.250 138.425 C 111.250 138.247,111.156 138.158,111.042 138.229 C 110.927 138.300,110.833 138.175,110.833 137.951 C 110.833 137.728,110.687 137.488,110.508 137.420 C 110.328 137.351,110.241 137.200,110.313 137.083 C 110.384 136.967,110.297 136.816,110.119 136.748 C 109.940 136.679,109.846 136.538,109.910 136.435 C 109.974 136.332,109.880 136.191,109.702 136.123 C 109.523 136.054,109.430 135.913,109.494 135.810 C 109.557 135.707,109.464 135.566,109.285 135.498 C 109.107 135.429,109.013 135.288,109.077 135.185 C 109.141 135.082,109.047 134.941,108.869 134.873 C 108.690 134.804,108.596 134.663,108.660 134.560 C 108.724 134.457,108.630 134.316,108.451 134.247 C 108.272 134.178,108.125 133.991,108.125 133.832 C 108.125 133.672,108.031 133.542,107.917 133.542 C 107.802 133.542,107.708 133.396,107.708 133.217 C 107.708 133.038,107.615 132.950,107.500 133.021 C 107.385 133.092,107.292 132.967,107.292 132.743 C 107.292 132.519,107.145 132.280,106.966 132.211 C 106.787 132.143,106.699 131.991,106.771 131.875 C 106.843 131.759,106.755 131.608,106.577 131.539 C 106.398 131.471,106.305 131.330,106.369 131.227 C 106.432 131.123,106.339 130.983,106.160 130.914 C 105.982 130.846,105.888 130.705,105.952 130.602 C 106.016 130.498,105.922 130.358,105.744 130.289 C 105.565 130.221,105.471 130.080,105.535 129.977 C 105.599 129.873,105.505 129.733,105.327 129.664 C 105.148 129.596,105.055 129.455,105.119 129.352 C 105.182 129.248,105.088 129.107,104.909 129.039 C 104.730 128.970,104.583 128.783,104.583 128.624 C 104.583 128.464,104.490 128.333,104.375 128.333 C 104.260 128.333,104.167 128.187,104.167 128.009 C 104.167 127.830,104.073 127.742,103.958 127.813 C 103.844 127.883,103.750 127.758,103.750 127.535 C 103.750 127.311,103.603 127.072,103.424 127.003 C 103.245 126.934,103.157 126.783,103.229 126.667 C 103.301 126.550,103.214 126.399,103.035 126.331 C 102.857 126.262,102.763 126.122,102.827 126.018 C 102.891 125.915,102.797 125.774,102.619 125.706 C 102.440 125.637,102.346 125.497,102.410 125.393 C 102.474 125.290,102.380 125.149,102.202 125.081 C 102.023 125.012,101.930 124.872,101.994 124.768 C 102.057 124.665,101.964 124.524,101.785 124.456 C 101.607 124.387,101.513 124.247,101.577 124.143 C 101.641 124.040,101.547 123.899,101.367 123.830 C 101.188 123.762,101.042 123.575,101.042 123.415 C 101.042 123.256,100.948 123.125,100.833 123.125 C 100.719 123.125,100.625 122.979,100.625 122.800 C 100.625 122.622,100.531 122.533,100.417 122.604 C 100.302 122.675,100.208 122.540,100.208 122.304 C 100.208 122.068,100.115 121.875,100.000 121.875 C 99.885 121.875,99.792 121.731,99.792 121.556 C 99.792 121.380,99.652 121.183,99.480 121.117 C 99.309 121.052,99.221 120.913,99.285 120.810 C 99.349 120.707,99.255 120.566,99.077 120.498 C 98.898 120.429,98.805 120.288,98.869 120.185 C 98.932 120.082,98.839 119.941,98.660 119.873 C 98.482 119.804,98.388 119.663,98.452 119.560 C 98.516 119.457,98.422 119.316,98.244 119.248 C 98.065 119.179,97.971 119.038,98.035 118.935 C 98.099 118.832,98.005 118.691,97.827 118.623 C 97.648 118.554,97.555 118.413,97.619 118.310 C 97.682 118.207,97.588 118.066,97.409 117.997 C 97.230 117.928,97.083 117.736,97.083 117.570 C 97.083 117.403,96.990 117.325,96.875 117.396 C 96.760 117.467,96.667 117.332,96.667 117.096 C 96.667 116.860,96.573 116.667,96.458 116.667 C 96.344 116.667,96.250 116.523,96.250 116.348 C 96.250 116.172,96.110 115.975,95.939 115.909 C 95.767 115.843,95.680 115.705,95.744 115.602 C 95.807 115.498,95.714 115.358,95.535 115.289 C 95.357 115.221,95.263 115.080,95.327 114.977 C 95.391 114.873,95.297 114.733,95.119 114.664 C 94.940 114.596,94.846 114.455,94.910 114.352 C 94.974 114.248,94.880 114.108,94.702 114.039 C 94.523 113.971,94.430 113.830,94.494 113.727 C 94.557 113.623,94.464 113.483,94.285 113.414 C 94.107 113.346,94.013 113.205,94.077 113.102 C 94.141 112.998,94.047 112.857,93.867 112.789 C 93.688 112.720,93.542 112.528,93.542 112.361 C 93.542 112.195,93.448 112.117,93.333 112.188 C 93.219 112.258,93.125 112.123,93.125 111.887 C 93.125 111.651,93.031 111.458,92.917 111.458 C 92.802 111.458,92.708 111.315,92.708 111.139 C 92.708 110.964,92.568 110.767,92.397 110.701 C 92.226 110.635,92.138 110.497,92.202 110.393 C 92.266 110.290,92.172 110.149,91.994 110.081 C 91.815 110.012,91.721 109.872,91.785 109.768 C 91.849 109.665,91.755 109.524,91.577 109.456 C 91.398 109.387,91.305 109.247,91.369 109.143 C 91.432 109.040,91.339 108.899,91.160 108.831 C 90.982 108.762,90.888 108.622,90.952 108.518 C 91.016 108.415,90.922 108.274,90.744 108.206 C 90.565 108.137,90.471 107.997,90.535 107.893 C 90.599 107.790,90.505 107.649,90.326 107.580 C 90.147 107.512,90.000 107.319,90.000 107.153 C 90.000 106.987,89.906 106.908,89.792 106.979 C 89.677 107.050,89.583 106.915,89.583 106.679 C 89.583 106.443,89.490 106.250,89.375 106.250 C 89.260 106.250,89.167 106.106,89.167 105.931 C 89.167 105.755,89.034 105.561,88.871 105.498 C 88.433 105.330,88.676 104.389,89.280 103.914 C 89.562 103.692,89.792 103.415,89.792 103.296 C 89.792 103.178,90.026 102.896,90.313 102.671 C 90.599 102.446,90.833 102.165,90.833 102.046 C 90.833 101.928,91.069 101.646,91.356 101.420 C 91.644 101.193,91.835 100.937,91.781 100.850 C 91.727 100.763,91.968 100.481,92.316 100.223 C 92.664 99.966,92.900 99.706,92.840 99.646 C 92.780 99.586,93.011 99.301,93.354 99.013 C 93.696 98.725,93.928 98.442,93.870 98.384 C 93.812 98.326,93.995 98.096,94.278 97.874 C 94.560 97.652,94.792 97.373,94.792 97.254 C 94.792 97.136,95.026 96.855,95.313 96.629 C 95.599 96.404,95.833 96.123,95.833 96.004 C 95.833 95.886,96.068 95.605,96.354 95.379 C 96.641 95.154,96.875 94.873,96.875 94.754 C 96.875 94.636,97.110 94.354,97.398 94.128 C 97.685 93.902,97.877 93.645,97.823 93.558 C 97.769 93.471,98.010 93.189,98.358 92.931 C 98.706 92.674,98.942 92.414,98.882 92.354 C 98.822 92.294,99.053 92.010,99.395 91.722 C 99.738 91.434,99.972 91.153,99.916 91.097 C 99.860 91.041,100.095 90.760,100.437 90.472 C 100.779 90.184,101.012 89.900,100.953 89.842 C 100.895 89.784,101.079 89.554,101.361 89.332 C 101.644 89.110,101.875 88.831,101.875 88.713 C 101.875 88.594,102.109 88.313,102.396 88.088 C 102.682 87.862,102.917 87.581,102.917 87.463 C 102.917 87.344,103.152 87.062,103.439 86.836 C 103.727 86.610,103.918 86.354,103.864 86.266 C 103.810 86.179,104.051 85.897,104.400 85.640 C 104.748 85.382,104.984 85.123,104.924 85.063 C 104.864 85.003,105.095 84.718,105.437 84.430 C 105.779 84.142,106.014 83.861,105.958 83.805 C 105.902 83.749,106.136 83.468,106.479 83.180 C 106.821 82.892,107.053 82.609,106.995 82.551 C 106.937 82.492,107.120 82.263,107.403 82.041 C 107.685 81.818,107.917 81.540,107.917 81.421 C 107.917 81.303,108.151 81.021,108.438 80.796 C 108.724 80.571,108.958 80.290,108.958 80.171 C 108.958 80.053,109.194 79.771,109.481 79.545 C 109.769 79.318,109.960 79.062,109.906 78.975 C 109.852 78.888,110.088 78.609,110.431 78.356 C 110.773 78.103,111.007 77.822,110.951 77.731 C 110.895 77.640,111.135 77.356,111.483 77.098 C 111.831 76.841,112.067 76.581,112.007 76.521 C 111.947 76.461,112.178 76.176,112.520 75.888 C 112.863 75.600,113.095 75.317,113.037 75.259 C 112.978 75.201,113.162 74.971,113.445 74.749 C 113.727 74.527,113.958 74.248,113.958 74.129 C 113.958 74.011,114.193 73.730,114.479 73.504 C 114.766 73.279,115.000 72.998,115.000 72.879 C 115.000 72.761,115.234 72.480,115.521 72.254 C 115.807 72.029,116.042 71.748,116.042 71.629 C 116.042 71.511,116.277 71.229,116.564 71.003 C 116.852 70.777,117.043 70.520,116.989 70.433 C 116.935 70.346,117.176 70.064,117.525 69.806 C 117.873 69.549,118.109 69.289,118.049 69.229 C 117.989 69.169,118.220 68.885,118.562 68.597 C 118.904 68.309,119.137 68.025,119.078 67.967 C 119.020 67.909,119.204 67.679,119.486 67.457 C 119.769 67.235,120.000 66.956,120.000 66.838 C 120.000 66.719,120.234 66.438,120.521 66.213 C 120.807 65.987,121.042 65.706,121.042 65.588 C 121.042 65.469,121.276 65.188,121.563 64.963 C 121.849 64.737,122.083 64.456,122.083 64.338 C 122.083 64.219,122.319 63.937,122.606 63.711 C 122.894 63.485,123.085 63.229,123.031 63.141 C 122.977 63.054,123.218 62.772,123.566 62.515 C 123.914 62.257,124.150 61.998,124.090 61.938 C 124.030 61.878,124.261 61.593,124.604 61.305 C 124.946 61.017,125.180 60.736,125.125 60.680 C 125.069 60.624,125.303 60.343,125.645 60.055 C 125.988 59.767,126.220 59.484,126.162 59.426 C 126.103 59.367,126.287 59.138,126.570 58.916 C 126.852 58.693,127.083 58.415,127.083 58.296 C 127.083 58.178,127.318 57.896,127.604 57.671 C 127.891 57.446,128.125 57.165,128.125 57.046 C 128.125 56.928,128.360 56.646,128.648 56.420 C 128.935 56.193,129.127 55.937,129.073 55.850 C 129.019 55.763,129.255 55.484,129.597 55.231 C 129.940 54.978,130.174 54.697,130.118 54.606 C 130.062 54.515,130.301 54.231,130.650 53.973 C 130.998 53.716,131.234 53.456,131.174 53.396 C 131.114 53.336,131.345 53.051,131.687 52.763 C 132.029 52.475,132.262 52.192,132.203 52.134 C 132.145 52.076,132.329 51.846,132.611 51.624 C 132.894 51.402,133.125 51.123,133.125 51.004 C 133.125 50.886,133.359 50.605,133.646 50.379 C 133.932 50.154,134.167 49.873,134.167 49.754 C 134.167 49.636,134.401 49.355,134.688 49.129 C 134.974 48.904,135.208 48.623,135.208 48.504 C 135.208 48.386,135.444 48.104,135.731 47.878 C 136.019 47.652,136.210 47.395,136.156 47.308 C 136.102 47.221,136.343 46.939,136.691 46.681 C 137.039 46.424,137.284 46.173,137.235 46.124 C 137.186 46.075,137.449 45.712,137.820 45.319 C 138.511 44.586,138.687 43.604,138.212 43.128 C 137.807 42.723,102.970 42.834,102.347 43.242 C 102.067 43.425,101.891 43.627,101.954 43.690 C 102.017 43.753,101.838 43.987,101.555 44.209 C 101.273 44.432,101.042 44.710,101.042 44.829 C 101.042 44.947,100.802 45.232,100.510 45.463 C 100.217 45.693,100.027 45.929,100.086 45.989 C 100.146 46.048,99.963 46.279,99.680 46.501 C 99.398 46.723,99.167 47.002,99.167 47.121 C 99.167 47.239,98.927 47.524,98.635 47.754 C 98.342 47.984,98.152 48.221,98.211 48.281 C 98.271 48.340,98.088 48.571,97.805 48.793 C 97.523 49.015,97.292 49.294,97.292 49.412 C 97.292 49.531,97.052 49.816,96.760 50.046 C 96.467 50.276,96.265 50.501,96.309 50.545 C 96.354 50.590,95.984 51.070,95.487 51.611 C 94.990 52.152,94.583 52.677,94.583 52.778 C 94.583 52.879,94.344 53.149,94.052 53.379 C 93.759 53.609,93.568 53.846,93.628 53.906 C 93.687 53.965,93.505 54.196,93.222 54.418 C 92.940 54.640,92.708 54.919,92.708 55.037 C 92.708 55.156,92.469 55.441,92.177 55.671 C 91.884 55.901,91.693 56.138,91.753 56.197 C 91.812 56.257,91.630 56.487,91.347 56.709 C 91.065 56.932,90.833 57.210,90.833 57.329 C 90.833 57.447,90.594 57.732,90.302 57.963 C 90.009 58.193,89.818 58.429,89.878 58.489 C 89.937 58.548,89.755 58.779,89.472 59.001 C 89.190 59.223,88.958 59.502,88.958 59.621 C 88.958 59.739,88.719 60.024,88.427 60.254 C 88.134 60.484,87.943 60.721,88.003 60.781 C 88.062 60.840,87.875 61.074,87.586 61.301 C 87.298 61.528,87.110 61.763,87.169 61.822 C 87.229 61.882,87.046 62.112,86.764 62.334 C 86.481 62.557,86.250 62.835,86.250 62.954 C 86.250 63.072,86.011 63.357,85.718 63.588 C 85.426 63.818,85.235 64.054,85.294 64.114 C 85.354 64.173,85.171 64.404,84.889 64.626 C 84.606 64.848,84.375 65.127,84.375 65.246 C 84.375 65.364,84.136 65.649,83.843 65.879 C 83.551 66.109,83.360 66.346,83.419 66.406 C 83.479 66.465,83.296 66.696,83.014 66.918 C 82.731 67.140,82.500 67.419,82.500 67.537 C 82.500 67.656,82.261 67.941,81.968 68.171 C 81.676 68.401,81.473 68.626,81.518 68.670 C 81.562 68.715,81.192 69.195,80.695 69.736 C 80.198 70.277,79.792 70.802,79.792 70.903 C 79.792 71.004,79.552 71.274,79.260 71.504 C 78.967 71.734,78.777 71.971,78.836 72.031 C 78.896 72.090,78.713 72.321,78.430 72.543 C 78.148 72.765,77.917 73.044,77.917 73.162 C 77.917 73.281,77.677 73.566,77.385 73.796 C 77.092 74.026,76.902 74.263,76.961 74.322 C 77.021 74.382,76.838 74.612,76.555 74.834 C 76.273 75.057,76.042 75.335,76.042 75.454 C 76.042 75.572,75.802 75.857,75.510 76.088 C 75.217 76.318,75.027 76.554,75.086 76.614 C 75.146 76.673,74.963 76.904,74.680 77.126 C 74.398 77.348,74.167 77.627,74.167 77.746 C 74.167 77.864,73.927 78.149,73.635 78.379 C 73.342 78.609,73.140 78.834,73.184 78.879 C 73.229 78.923,72.859 79.403,72.362 79.944 C 71.865 80.486,71.458 81.011,71.458 81.111 C 71.458 81.212,71.219 81.482,70.927 81.713 C 70.634 81.943,70.443 82.179,70.503 82.239 C 70.562 82.298,70.380 82.529,70.097 82.751 C 69.815 82.973,69.583 83.252,69.583 83.371 C 69.583 83.489,69.344 83.774,69.052 84.004 C 68.759 84.234,68.568 84.471,68.628 84.531 C 68.687 84.590,68.505 84.821,68.222 85.043 C 67.940 85.265,67.708 85.544,67.708 85.662 C 67.708 85.781,67.469 86.066,67.177 86.296 C 66.884 86.526,66.693 86.763,66.753 86.822 C 66.812 86.882,66.630 87.112,66.347 87.334 C 66.065 87.557,65.833 87.835,65.833 87.954 C 65.833 88.072,65.594 88.357,65.302 88.588 C 65.009 88.818,64.818 89.054,64.878 89.114 C 64.937 89.173,64.750 89.408,64.461 89.635 C 64.173 89.862,63.985 90.096,64.044 90.156 C 64.104 90.215,63.921 90.446,63.639 90.668 C 63.356 90.890,63.125 91.169,63.125 91.287 C 63.125 91.406,62.886 91.691,62.593 91.921 C 62.301 92.151,62.110 92.388,62.169 92.447 C 62.229 92.507,62.046 92.737,61.764 92.959 C 61.481 93.182,61.250 93.460,61.250 93.579 C 61.250 93.697,61.011 93.982,60.718 94.213 C 60.426 94.443,60.235 94.679,60.294 94.739 C 60.354 94.798,60.171 95.029,59.889 95.251 C 59.606 95.473,59.375 95.752,59.375 95.871 C 59.375 95.989,59.136 96.274,58.843 96.504 C 58.551 96.734,58.348 96.959,58.393 97.004 C 58.438 97.049,58.025 97.574,57.477 98.171 C 56.928 98.768,56.518 99.296,56.566 99.343 C 56.613 99.391,56.416 99.616,56.128 99.843 C 55.839 100.070,55.652 100.304,55.711 100.364 C 55.771 100.423,55.588 100.654,55.305 100.876 C 55.023 101.098,54.786 101.391,54.780 101.526 C 54.774 101.660,54.493 101.989,54.155 102.255 L 53.542 102.740 53.542 73.291 C 53.542 42.326,53.547 42.503,52.694 43.030 C 52.587 43.096,52.500 43.074,52.500 42.981 C 52.500 42.888,45.961 42.813,37.969 42.813 L 23.438 42.813 22.969 43.272 " stroke="none" fill="#1c6ce4" fill-rule="evenodd"></path><path id="path1" d="M194.632 115.841 C 193.844 116.158,193.750 116.870,193.750 122.514 L 193.750 127.917 190.768 127.917 C 186.536 127.917,186.875 127.353,186.875 134.383 C 186.875 141.415,186.528 140.833,190.719 140.833 L 193.729 140.833 193.806 155.156 C 193.892 171.261,193.854 170.823,195.479 174.167 C 198.703 180.803,208.080 183.739,218.021 181.226 C 221.104 180.446,221.059 180.642,219.676 174.022 C 218.314 167.504,218.454 167.717,215.797 168.131 C 213.096 168.551,211.388 168.113,210.681 166.819 C 210.342 166.200,210.308 165.129,210.253 153.490 L 210.193 140.833 214.454 140.833 C 220.460 140.833,220.000 141.369,220.000 134.375 C 220.000 127.382,220.459 127.917,214.462 127.917 L 210.208 127.917 210.208 122.203 L 210.208 116.489 209.659 116.057 C 209.062 115.587,195.741 115.396,194.632 115.841 M158.854 127.518 C 149.927 128.740,143.376 133.533,140.899 140.656 C 139.522 144.615,139.538 144.626,147.791 145.293 C 155.024 145.877,155.169 145.862,155.619 144.498 C 157.396 139.114,167.804 138.227,169.549 143.312 C 170.859 147.132,169.713 147.751,159.063 148.971 C 150.387 149.965,145.981 151.549,142.584 154.896 C 135.875 161.503,137.189 174.393,145.074 179.334 C 152.469 183.969,163.964 183.099,169.584 177.480 L 170.625 176.438 170.625 178.428 C 170.625 181.568,170.537 181.539,179.758 181.425 L 185.453 181.354 185.956 180.770 L 186.458 180.185 186.458 163.165 C 186.458 140.846,186.352 139.908,183.323 135.506 C 179.222 129.545,168.831 126.153,158.854 127.518 M240.251 127.536 C 231.076 128.687,224.129 134.108,221.984 141.791 C 221.191 144.632,221.216 144.644,229.249 145.293 C 236.642 145.890,236.554 145.901,237.180 144.262 C 238.229 141.516,240.802 140.115,244.806 140.108 C 249.139 140.101,251.028 141.494,251.217 144.832 C 251.367 147.495,250.696 147.771,241.458 148.853 C 231.878 149.975,227.730 151.382,224.184 154.713 C 218.316 160.223,218.203 171.276,223.953 177.223 C 230.406 183.896,244.286 184.074,250.885 177.568 L 252.083 176.387 252.083 178.402 C 252.083 181.572,251.984 181.539,261.216 181.425 L 266.912 181.354 267.414 180.770 L 267.917 180.185 267.906 163.374 C 267.893 142.009,267.833 141.236,265.915 137.493 C 262.073 129.994,251.953 126.068,240.251 127.536 M295.959 127.624 C 293.361 128.252,290.526 130.088,288.897 132.196 L 288.021 133.331 287.917 131.021 C 287.765 127.664,288.417 127.917,279.901 127.917 C 273.207 127.917,272.954 127.931,272.424 128.348 L 271.875 128.780 271.875 154.598 C 271.875 184.222,271.628 181.102,273.992 181.354 C 275.762 181.542,287.087 181.381,287.568 181.160 C 288.297 180.825,288.333 180.060,288.333 164.926 C 288.333 148.532,288.336 148.496,289.525 146.465 C 290.322 145.105,291.858 143.661,293.255 142.959 C 295.765 141.698,298.225 141.561,303.266 142.403 C 304.028 142.530,304.204 142.482,304.673 142.013 L 305.208 141.477 305.208 135.125 C 305.208 127.732,305.250 127.888,303.149 127.499 C 301.545 127.203,297.403 127.274,295.959 127.624 M306.013 128.315 L 305.521 128.713 305.522 146.805 L 305.524 164.896 306.005 167.083 C 307.901 175.693,313.379 180.898,321.577 181.877 C 327.864 182.628,333.407 180.720,337.367 176.443 L 338.750 174.949 338.750 177.567 C 338.750 180.034,338.779 180.219,339.253 180.770 L 339.755 181.354 346.492 181.354 C 353.802 181.354,354.184 181.314,354.548 180.516 C 354.730 180.116,354.792 173.520,354.792 154.460 L 354.792 128.939 354.280 128.428 L 353.769 127.917 346.520 127.923 C 340.384 127.929,339.207 127.978,338.854 128.245 C 338.445 128.553,338.436 128.866,338.333 144.748 C 338.229 160.899,338.228 160.940,337.765 162.073 C 334.799 169.321,325.230 169.741,322.523 162.741 L 321.986 161.354 321.879 144.957 C 321.773 128.868,321.763 128.553,321.354 128.245 C 320.639 127.705,306.687 127.769,306.013 128.315 M169.968 161.099 C 169.899 163.725,169.862 163.933,169.221 165.235 C 165.575 172.636,152.286 171.467,154.379 163.930 C 154.990 161.730,157.296 160.663,163.750 159.592 C 165.870 159.240,168.073 158.821,168.646 158.661 C 169.219 158.501,169.767 158.362,169.864 158.352 C 169.961 158.342,170.008 159.578,169.968 161.099 M251.426 161.108 C 251.349 163.731,251.308 163.957,250.674 165.244 C 247.475 171.742,235.625 171.945,235.625 165.502 C 235.625 162.095,237.676 160.830,245.208 159.588 C 247.328 159.238,249.531 158.821,250.104 158.661 C 250.677 158.501,251.227 158.362,251.326 158.352 C 251.425 158.342,251.470 159.582,251.426 161.108 M366.689 164.184 C 359.553 165.585,356.983 174.607,362.280 179.660 C 367.625 184.758,376.242 181.784,377.531 174.396 C 378.578 168.396,372.827 162.978,366.689 164.184 " stroke="none" fill="#040404" fill-rule="evenodd"></path><path id="path2" d="M23.958 42.708 C 23.958 42.845,28.750 42.917,37.917 42.917 C 47.083 42.917,51.875 42.845,51.875 42.708 C 51.875 42.572,47.083 42.500,37.917 42.500 C 28.750 42.500,23.958 42.572,23.958 42.708 M103.646 42.708 C 103.560 42.847,109.199 42.917,120.404 42.917 C 131.524 42.917,137.292 42.846,137.292 42.708 C 137.292 42.571,131.567 42.500,120.533 42.500 C 109.585 42.500,103.730 42.572,103.646 42.708 M136.458 46.875 C 136.172 47.099,136.040 47.284,136.166 47.287 C 136.291 47.290,136.563 47.104,136.771 46.875 C 137.246 46.350,137.129 46.350,136.458 46.875 M130.417 54.167 C 130.130 54.391,129.998 54.576,130.124 54.579 C 130.249 54.581,130.522 54.396,130.729 54.167 C 131.204 53.642,131.088 53.642,130.417 54.167 M129.375 55.417 C 129.089 55.641,128.957 55.826,129.082 55.829 C 129.208 55.831,129.480 55.646,129.688 55.417 C 130.163 54.892,130.046 54.892,129.375 55.417 M123.333 62.708 C 123.047 62.932,122.915 63.118,123.041 63.120 C 123.166 63.123,123.438 62.938,123.646 62.708 C 124.121 62.183,124.004 62.183,123.333 62.708 M117.292 70.000 C 117.005 70.224,116.873 70.409,116.999 70.412 C 117.124 70.415,117.397 70.229,117.604 70.000 C 118.079 69.475,117.963 69.475,117.292 70.000 M111.250 77.292 C 110.964 77.516,110.832 77.701,110.957 77.704 C 111.083 77.706,111.355 77.521,111.563 77.292 C 112.038 76.767,111.921 76.767,111.250 77.292 M110.208 78.542 C 109.922 78.766,109.790 78.951,109.916 78.954 C 110.041 78.956,110.313 78.771,110.521 78.542 C 110.996 78.017,110.879 78.017,110.208 78.542 M104.167 85.833 C 103.880 86.057,103.748 86.243,103.874 86.245 C 103.999 86.248,104.272 86.063,104.479 85.833 C 104.954 85.308,104.838 85.308,104.167 85.833 M98.125 93.125 C 97.839 93.349,97.707 93.534,97.832 93.537 C 97.958 93.540,98.230 93.354,98.438 93.125 C 98.913 92.600,98.796 92.600,98.125 93.125 M92.083 100.417 C 91.797 100.641,91.665 100.826,91.791 100.829 C 91.916 100.831,92.188 100.646,92.396 100.417 C 92.871 99.892,92.754 99.892,92.083 100.417 M65.862 126.476 C 65.592 126.695,65.444 126.875,65.533 126.875 C 65.623 126.875,65.866 126.721,66.073 126.534 C 66.381 126.256,66.509 126.241,66.767 126.455 C 67.024 126.669,67.083 126.663,67.083 126.424 C 67.083 125.991,66.426 126.019,65.862 126.476 M138.958 179.884 C 138.958 180.049,139.052 180.242,139.167 180.313 C 139.281 180.383,139.375 180.248,139.375 180.012 C 139.375 179.776,139.281 179.583,139.167 179.583 C 139.052 179.583,138.958 179.718,138.958 179.884 " stroke="none" fill="#1038e8" fill-rule="evenodd"></path></g></svg>